<svg xmlns="http://www.w3.org/2000/svg" viewBox="0 0 344.57 67.46"><defs><style>.cls-1{fill:#fff;}.cls-2{fill:#e72947;}</style></defs><title>Gamurs white</title><g id="Layer_2" data-name="Layer 2"><g id="white_gamurs" data-name="white gamurs"><path class="cls-1" d="M48.22,56.61h-15C20.86,54.88,11.37,45.18,11.37,33.44s7-21.37,21.57-23.13V0A33.48,33.48,0,0,0,0,33.62c0,17.57,13.67,32,31.15,33.63h0a36,36,0,0,0,4.15.2h13v0h0Z"/><path class="cls-2" d="M32.94,15v5.08S20,18.86,20,35.59h-4.7S13.26,16.24,32.94,15Z"/><polygon class="cls-2" points="32.94 31.08 32.94 40.48 48.29 40.48 48.29 56.5 57.53 56.5 57.53 31.08 32.94 31.08"/><path class="cls-1" d="M93.91,16H102l17.08,40.14H109.9l-3.64-8.94H89.41l-3.64,8.94H76.83Zm9.22,23.46L97.83,26.5,92.54,39.42Z"/><path class="cls-1" d="M139.45,16.25h9.45l10.48,16.85,10.47-16.85h9.45V56.11h-8.65v-26l-11.22,17h-.23L148.1,30.26V56.11h-8.65Z"/><path class="cls-1" d="M219.72,56.73q-8,0-12.64-4.44T202.47,39V16.25h8.77V38.8q0,4.9,2.28,7.37a8.15,8.15,0,0,0,6.32,2.48,8.31,8.31,0,0,0,6.32-2.39q2.28-2.39,2.28-7.17V16.25h8.77V38.74A23.09,23.09,0,0,1,236,46.65a14.93,14.93,0,0,1-3.5,5.61A14.33,14.33,0,0,1,227,55.62,22.23,22.23,0,0,1,219.72,56.73Z"/><path class="cls-1" d="M260.37,16.25h18.22q7.57,0,11.61,4a12.31,12.31,0,0,1,3.42,9.11v.11a12.5,12.5,0,0,1-2.36,7.88,13.69,13.69,0,0,1-6.18,4.47l9.73,14.23H284.57L276,43.35h-6.89V56.11h-8.77ZM278,35.61a7.28,7.28,0,0,0,5-1.54,5.2,5.2,0,0,0,1.74-4.1v-.11a5.08,5.08,0,0,0-1.82-4.27,8,8,0,0,0-5.07-1.42h-8.71V35.61Z"/><path class="cls-1" d="M330,56.67a26.39,26.39,0,0,1-8.94-1.57,23.63,23.63,0,0,1-8-4.81l5.18-6.21a26,26,0,0,0,5.61,3.53,15,15,0,0,0,6.29,1.31,7.66,7.66,0,0,0,4.24-1,3.14,3.14,0,0,0,1.51-2.76v-.11a3.46,3.46,0,0,0-.31-1.51,3.18,3.18,0,0,0-1.2-1.22,12.6,12.6,0,0,0-2.46-1.14q-1.57-.57-4.08-1.2a49.65,49.65,0,0,1-5.48-1.65,15.4,15.4,0,0,1-4.17-2.25,9.08,9.08,0,0,1-2.65-3.33,11.56,11.56,0,0,1-.94-5V27.7a11.55,11.55,0,0,1,1-4.92A11.21,11.21,0,0,1,318.5,19a12.83,12.83,0,0,1,4.39-2.45,17.64,17.64,0,0,1,5.63-.85A23.84,23.84,0,0,1,336.57,17a23.39,23.39,0,0,1,6.75,3.76l-4.55,6.6a29,29,0,0,0-5.24-2.87,13.4,13.4,0,0,0-5.12-1.05,6.2,6.2,0,0,0-3.84,1,3,3,0,0,0-1.28,2.48V27a3.59,3.59,0,0,0,.37,1.68A3.35,3.35,0,0,0,325,30a12.61,12.61,0,0,0,2.65,1.08q1.68.51,4.25,1.2A41,41,0,0,1,337.29,34a15.08,15.08,0,0,1,4,2.39,9.13,9.13,0,0,1,2.45,3.27,11.11,11.11,0,0,1,.83,4.5v.11a12.34,12.34,0,0,1-1.07,5.27,10.8,10.8,0,0,1-3,3.87,13.49,13.49,0,0,1-4.59,2.39A20,20,0,0,1,330,56.67Z"/></g></g></svg>