<svg width="48" height="48" viewBox="0 0 48 48" fill="none" xmlns="http://www.w3.org/2000/svg">
<g clip-path="url(#clip0_6507_9811)">
<path d="M0.40918 0.409424H41.4139C44.8255 0.409424 47.5904 3.18025 47.5904 6.58594V47.5906H6.39583C3.09101 47.5906 0.40918 44.9088 0.40918 41.604V0.409424Z" fill="#ED1C24"/>
<path d="M41.4141 0.409394C44.8257 0.409394 47.5906 3.17429 47.5906 6.58591V47.5906H6.39604C3.09122 47.5906 0.409394 44.9088 0.409394 41.604V0.409394H41.4141ZM41.4141 0H0V41.604C0 45.1283 2.87169 48 6.39604 48H48V6.58591C48 2.95476 45.0452 0 41.4141 0Z" fill="black"/>
<path d="M22.3269 43.111C22.0718 43.1288 21.882 43.1526 21.6921 43.1526C19.8825 43.1526 18.0728 43.1526 16.186 43.1526V4.9187H22.321V43.111H22.3269Z" fill="#FEFCFC"/>
<path d="M23.6914 11.03V4.8475C28.0583 4.80597 31.6182 6.33082 34.1636 9.90857C36.9819 13.872 37.1065 19.1763 34.4662 23.2702C31.9683 27.1447 28.2778 28.7526 23.6973 28.7644V22.6176C28.3668 21.5496 30.1408 19.823 30.0044 16.5123C29.8798 13.3914 27.8921 11.6529 23.6914 11.03Z" fill="#FDFAFA"/>
</g>
<defs>
<clipPath id="clip0_6507_9811">
<rect width="48" height="48" fill="white"/>
</clipPath>
</defs>
</svg>
