<svg width="114" height="50" viewBox="0 0 114 50" fill="none" xmlns="http://www.w3.org/2000/svg">
<g id="Prima logo">
<path id="Vector" d="M111.545 8.88763C112.12 8.88763 112.59 9.07923 112.96 9.45624C113.331 9.83943 113.517 10.2844 113.517 10.8036C113.517 11.3227 113.331 11.7863 112.954 12.1633C112.577 12.5403 112.126 12.7257 111.601 12.7257C111.075 12.7257 110.618 12.5403 110.241 12.1633C109.864 11.7863 109.679 11.3351 109.679 10.8036C109.679 10.4328 109.778 10.0866 109.975 9.77762C110.173 9.4686 110.42 9.23992 110.717 9.09777C111.014 8.95562 111.292 8.88763 111.545 8.88763ZM111.638 9.25846C111.168 9.25846 110.785 9.41297 110.494 9.722C110.204 10.031 110.056 10.3957 110.056 10.8036C110.056 11.2115 110.21 11.5947 110.507 11.8913C110.81 12.1942 111.174 12.3425 111.595 12.3425C112.015 12.3425 112.38 12.1942 112.682 11.8913C112.985 11.5885 113.134 11.2239 113.134 10.8036C113.134 10.5131 113.059 10.2412 112.905 9.99394C112.75 9.74672 112.559 9.56131 112.318 9.4377C112.077 9.31409 111.848 9.25228 111.632 9.25228L111.638 9.25846ZM110.748 11.8295V9.78998H111.712C111.953 9.78998 112.126 9.84561 112.231 9.95686C112.336 10.0681 112.392 10.2041 112.392 10.3648C112.392 10.5255 112.349 10.6491 112.256 10.7418C112.163 10.8345 112.027 10.9025 111.842 10.9334C111.928 10.9643 111.99 11.0075 112.04 11.0632C112.089 11.1188 112.169 11.2362 112.274 11.4154L112.515 11.8234H112.009L111.836 11.4958C111.731 11.298 111.644 11.1682 111.564 11.0941C111.483 11.0261 111.384 10.989 111.261 10.989H111.156V11.8234H110.742L110.748 11.8295ZM111.162 10.6738H111.496C111.663 10.6738 111.786 10.6491 111.854 10.6058C111.922 10.5625 111.959 10.4884 111.959 10.3895C111.959 10.2968 111.922 10.2288 111.854 10.1855C111.786 10.1423 111.675 10.1175 111.533 10.1175H111.156V10.6738H111.162Z" fill="white"/>
<path id="Vector_2" d="M56.6193 9.67255H61.1187C62.3363 9.67255 63.2695 9.77761 63.9247 9.98157C64.5798 10.1855 65.068 10.4822 65.4018 10.8654C65.7355 11.2486 65.9518 11.7183 66.0693 12.2622C66.1867 12.8122 66.2423 13.6589 66.2423 14.8085V16.4093C66.2423 17.5774 66.1311 18.4365 65.9024 18.968C65.6737 19.5057 65.2596 19.9198 64.654 20.2041C64.0483 20.4884 63.2572 20.6367 62.2806 20.6367H61.0816V28.0285H56.6132V9.67255H56.6193ZM61.0878 12.8122V17.4785C61.2176 17.4847 61.3227 17.4908 61.4154 17.4908C61.8233 17.4908 62.1076 17.3858 62.2683 17.1695C62.429 16.9531 62.5093 16.5081 62.5093 15.8283V14.3203C62.5093 13.696 62.4166 13.2881 62.2312 13.0965C62.0458 12.9111 61.6626 12.8122 61.0878 12.8122Z" fill="white"/>
<path id="Vector_3" d="M67.5278 9.67255H70.6922C72.7997 9.67255 74.2274 9.75907 74.9752 9.93213C75.7231 10.1052 76.3288 10.5502 76.7985 11.2671C77.2682 11.984 77.503 13.1212 77.503 14.6849C77.503 16.1126 77.3362 17.0706 77.0024 17.565C76.6687 18.0533 76.0136 18.3499 75.037 18.4488C75.9208 18.6837 76.5142 18.9989 76.8232 19.3882C77.126 19.7838 77.3176 20.1423 77.3918 20.4698C77.466 20.7974 77.503 21.7059 77.503 23.1831V28.0224H73.356V21.9222C73.356 20.9395 73.2818 20.3339 73.1396 20.099C72.9975 19.8641 72.6143 19.7467 71.9962 19.7467V28.0224H67.5278V9.67255ZM71.9962 12.8122V16.8913C72.4969 16.8913 72.8492 16.8172 73.0531 16.6688C73.2571 16.5205 73.356 16.0446 73.356 15.235V14.2276C73.356 13.6466 73.2571 13.2634 73.0655 13.0842C72.8739 12.9049 72.5154 12.8122 71.9962 12.8122Z" fill="white"/>
<path id="Vector_4" d="M83.7022 9.67255V28.0224H79.2337V9.67255H83.7022Z" fill="white"/>
<path id="Vector_5" d="M99.2829 9.67255V28.0224H95.3769V15.6367L93.8194 28.0224H91.0506L89.4127 15.921V28.0224H85.5005V9.67255H91.2792C91.4523 10.7789 91.6253 12.0767 91.8108 13.5724L92.4473 18.2387L93.4733 9.67255H99.2891H99.2829Z" fill="white"/>
<path id="Vector_6" d="M108.801 9.67255L111.353 28.0224H106.786L106.545 24.722H104.944L104.678 28.0224H100.062L102.342 9.67255H108.801ZM106.434 21.4711C106.205 19.3944 105.983 16.8234 105.754 13.764C105.297 17.2807 105.012 19.8456 104.895 21.4711H106.434Z" fill="white"/>
<path id="Vector_7" d="M60.2718 38.4982V37.4043H64.2026C64.2026 37.8431 64.1903 38.2325 64.1903 38.5662C64.1903 38.9 64.1717 39.1843 64.1408 39.4315C64.1099 39.6725 64.0481 39.8765 63.9616 40.0434C63.875 40.204 63.7453 40.34 63.5784 40.4389C63.4115 40.5378 63.1828 40.612 62.9109 40.649C62.6328 40.6861 62.2867 40.7108 61.8664 40.7108C61.681 40.7108 61.4956 40.7108 61.3102 40.7108C61.1247 40.7108 60.9393 40.7108 60.7663 40.7108H60.2348C59.5982 40.7108 59.0605 40.6923 58.6155 40.6614C58.1705 40.6305 57.8058 40.5316 57.5277 40.3709C57.2496 40.2102 57.0456 39.9692 56.9158 39.6416C56.786 39.3141 56.7242 38.8567 56.7242 38.2757C56.7242 38.0965 56.7242 37.8616 56.7428 37.5588C56.7551 37.256 56.7737 36.8975 56.7922 36.4772C56.7922 36.2918 56.8355 36.1188 56.9158 35.9457C56.99 35.7726 57.0889 35.6243 57.2063 35.4883C57.3237 35.3586 57.4597 35.2473 57.6081 35.1546C57.7626 35.0681 57.9233 35.0125 58.0963 34.9877C58.4424 34.9445 58.7823 34.9136 59.1284 34.895C59.4746 34.8765 59.8145 34.8703 60.1606 34.8703H61.4152C61.786 34.8703 62.1136 34.8827 62.3979 34.9074C62.6822 34.9321 62.9294 34.9692 63.1396 35.0248C63.3497 35.0804 63.5166 35.1608 63.6525 35.272C63.7823 35.3771 63.8874 35.4822 63.9616 35.5996C64.0357 35.717 64.0914 35.8345 64.1223 35.9704C64.1593 36.1002 64.1779 36.2485 64.1841 36.4031C64.1902 36.5576 64.1964 36.7244 64.1964 36.9037H62.4844C62.4721 36.7553 62.4474 36.6379 62.4165 36.5576C62.3794 36.4772 62.3176 36.4092 62.231 36.366C62.1445 36.3227 62.0209 36.298 61.8602 36.2856C61.7057 36.2733 61.5017 36.2671 61.2545 36.2671H60.8157C60.6612 36.2671 60.5067 36.2671 60.3584 36.2671C60.21 36.2671 60.0741 36.2671 59.9443 36.2671C59.66 36.2671 59.4189 36.2671 59.2335 36.2794C59.0481 36.2856 58.8998 36.3351 58.7823 36.4154C58.6649 36.4958 58.5846 36.6256 58.5413 36.8048C58.498 36.984 58.4733 37.2498 58.4733 37.5897C58.4733 37.9049 58.4795 38.1707 58.498 38.3808C58.5104 38.5909 58.5475 38.764 58.5969 38.9C58.6464 39.0298 58.7267 39.1286 58.8318 39.1966C58.9369 39.2646 59.0728 39.3079 59.2459 39.3388C59.4189 39.3697 59.6352 39.382 59.901 39.382H61.5759C61.7799 39.382 61.9529 39.3635 62.0889 39.3202C62.2249 39.277 62.3299 39.2152 62.3917 39.1163C62.4597 39.0236 62.4906 38.8814 62.4906 38.6898C62.4906 38.6527 62.4906 38.628 62.4906 38.6095C62.4906 38.5909 62.4906 38.5662 62.4906 38.5353H60.278L60.2718 38.4982Z" fill="white"/>
<path id="Vector_8" d="M74.2459 39.6105H70.5376L69.969 40.6488H68.0222L71.2236 34.9133H73.5784L76.7119 40.6488H74.7836L74.2397 39.6105H74.2459ZM73.6093 38.4238L72.3856 36.1556L71.1495 38.4238H73.6093Z" fill="white"/>
<path id="Vector_9" d="M90.513 34.9133V40.6488H88.8628V36.2792L86.335 40.6488H84.932L82.4351 36.2792V40.6488H80.7849V34.9133H83.5661L85.6737 38.7143L87.7565 34.9133H90.5192H90.513Z" fill="white"/>
<path id="Vector_10" d="M94.8331 40.6488V34.9133H101.23V36.205H96.5574V37.2001H100.921V38.3373H96.5574V39.3633H101.23V40.655H94.8331V40.6488Z" fill="white"/>
<path id="Vector_11" d="M110.612 36.6687C110.612 36.5389 110.581 36.4338 110.544 36.3535C110.507 36.2793 110.433 36.2175 110.334 36.1804C110.235 36.1433 110.099 36.1186 109.938 36.1062C109.777 36.0939 109.567 36.0877 109.308 36.0877H109.196C109.196 36.0877 109.129 36.0877 109.085 36.0939C108.714 36.1124 108.399 36.1186 108.146 36.1186C107.892 36.1186 107.688 36.131 107.534 36.1557C107.379 36.1804 107.268 36.2299 107.2 36.2978C107.132 36.3658 107.095 36.4833 107.095 36.6439C107.095 36.7861 107.145 36.8973 107.25 36.9653C107.355 37.0395 107.497 37.0766 107.682 37.0828C107.942 37.0828 108.183 37.0951 108.418 37.1013C108.653 37.1013 108.869 37.1075 109.067 37.1075C109.184 37.1075 109.314 37.1075 109.444 37.1075C109.574 37.1075 109.697 37.1075 109.808 37.1075C110.284 37.1075 110.698 37.1198 111.044 37.1446C111.397 37.1693 111.681 37.2434 111.91 37.3547C112.138 37.4659 112.305 37.6452 112.41 37.88C112.522 38.1149 112.571 38.4425 112.571 38.8689C112.571 39.1656 112.54 39.419 112.485 39.6229C112.429 39.8269 112.336 39.9999 112.213 40.1359C112.089 40.2719 111.934 40.3769 111.743 40.4511C111.551 40.5253 111.329 40.5747 111.063 40.6056C110.908 40.6242 110.612 40.6427 110.167 40.6674C109.728 40.6922 109.159 40.7045 108.473 40.7045C107.787 40.7045 107.243 40.686 106.817 40.6427C106.391 40.6056 106.075 40.5129 105.884 40.3769C105.748 40.2781 105.643 40.173 105.581 40.0617C105.513 39.9505 105.47 39.8331 105.445 39.7033C105.42 39.5797 105.408 39.4437 105.408 39.2954V38.8195H107.138V39.0172C107.138 39.0852 107.151 39.147 107.182 39.2027C107.213 39.2583 107.262 39.3077 107.336 39.351C107.41 39.3943 107.528 39.419 107.682 39.4313C107.756 39.4313 107.892 39.4437 108.096 39.4499C108.3 39.4499 108.554 39.4561 108.869 39.4561C109.271 39.4561 109.598 39.4561 109.852 39.4499C110.105 39.4499 110.309 39.4252 110.451 39.3881C110.593 39.351 110.692 39.3015 110.742 39.2336C110.791 39.1656 110.816 39.0667 110.816 38.9307C110.816 38.7947 110.791 38.7082 110.742 38.6341C110.692 38.5599 110.618 38.5104 110.519 38.4795C110.42 38.4486 110.303 38.4301 110.173 38.4239C110.037 38.4239 109.889 38.4177 109.728 38.4177C109.166 38.4177 108.665 38.4116 108.232 38.4177C107.794 38.4177 107.417 38.4116 107.095 38.3868C106.774 38.3621 106.502 38.325 106.285 38.2694C106.063 38.2138 105.884 38.1211 105.754 37.9913C105.624 37.8615 105.519 37.7008 105.463 37.4907C105.402 37.2867 105.371 37.021 105.371 36.7057C105.371 36.4214 105.396 36.1804 105.445 35.9765C105.494 35.7725 105.575 35.5994 105.692 35.4573C105.81 35.3151 105.958 35.2101 106.143 35.1297C106.329 35.0556 106.564 34.9999 106.836 34.9629C107.021 34.9381 107.318 34.9196 107.726 34.8949C108.133 34.8701 108.653 34.8578 109.271 34.8578C109.598 34.8578 109.889 34.8578 110.154 34.8578C110.414 34.8578 110.649 34.8763 110.853 34.8949C111.057 34.9196 111.236 34.9505 111.391 34.9938C111.545 35.037 111.681 35.0988 111.792 35.1854C111.916 35.2781 112.015 35.3769 112.089 35.4758C112.163 35.5747 112.213 35.6921 112.25 35.8096C112.287 35.927 112.305 36.063 112.318 36.1989C112.33 36.3411 112.336 36.4956 112.336 36.6625H110.624L110.612 36.6687Z" fill="white"/>
<path id="Vector_12" d="M111.879 31.2854H56.8604V32.5215H111.879V31.2854Z" fill="white"/>
<path id="Vector_13" d="M0.426331 0.426331H43.1396C46.6933 0.426331 49.5734 3.31261 49.5734 6.8602V49.5734H6.66242C3.2199 49.5734 0.426331 46.7799 0.426331 43.3373V0.426331Z" fill="#ED1C24"/>
<path id="Vector_14" d="M43.1397 0.426452C46.6934 0.426452 49.5735 3.30655 49.5735 6.86032V49.5735H6.66255C3.22002 49.5735 0.426452 46.78 0.426452 43.3375V0.426452H43.1397ZM43.1397 0H0V43.3375C0 47.0087 2.99135 50 6.66255 50H50V6.86032C50 3.07787 46.9221 0 43.1397 0Z" fill="white"/>
<path id="Vector_15" d="M23.2571 44.9073C22.9914 44.9258 22.7936 44.9505 22.5958 44.9505C20.7108 44.9505 18.8257 44.9505 16.8604 44.9505V5.1236H23.251V44.9073H23.2571Z" fill="#FEFCFC"/>
<path id="Vector_16" d="M24.6786 11.4894V5.04938C29.2275 5.00612 32.9358 6.5945 35.5872 10.3213C38.5229 14.4499 38.6527 19.9752 35.9024 24.2397C33.3004 28.2756 29.4562 29.9505 24.6848 29.9629V23.5599C29.5489 22.4474 31.3968 20.6489 31.2547 17.2002C31.1249 13.9493 29.0544 12.1384 24.6786 11.4894Z" fill="#FDFAFA"/>
</g>
</svg>
